<svg width="12" height="12" viewBox="0 0 12 12" fill="none" xmlns="http://www.w3.org/2000/svg">
<path fill-rule="evenodd" clip-rule="evenodd" d="M1.48396e-07 1.00255C1.48396e-07 0.736655 0.105625 0.481654 0.293639 0.29364C0.481653 0.105626 0.736654 1.33653e-06 1.00255 1.33653e-06H10.9964C11.1281 -0.000213873 11.2586 0.0255629 11.3804 0.0758559C11.5022 0.126149 11.6129 0.19997 11.7061 0.293094C11.7994 0.386217 11.8733 0.496814 11.9237 0.618552C11.9742 0.74029 12.0001 0.870779 12 1.00255V10.9964C12.0001 11.1282 11.9743 11.2587 11.9239 11.3805C11.8736 11.5023 11.7997 11.613 11.7066 11.7062C11.6134 11.7994 11.5028 11.8733 11.381 11.9237C11.2592 11.9742 11.1287 12.0001 10.9969 12H1.00255C0.870843 12 0.740432 11.9741 0.618762 11.9236C0.497092 11.8732 0.386548 11.7993 0.293446 11.7062C0.200344 11.613 0.126508 11.5024 0.0761578 11.3807C0.0258072 11.259 -7.15067e-05 11.1286 1.48396e-07 10.9969V1.00255ZM4.74982 4.57527H6.37473V5.39127C6.60927 4.92218 7.20927 4.5 8.11091 4.5C9.83945 4.5 10.2491 5.43436 10.2491 7.14873V10.3244H8.49982V7.53927C8.49982 6.56291 8.26527 6.012 7.66964 6.012C6.84327 6.012 6.49964 6.606 6.49964 7.53927V10.3244H4.74982V4.57527ZM1.74982 10.2496H3.49964V4.5H1.74982V10.2491V10.2496ZM3.75 2.62473C3.7533 2.77455 3.72664 2.92352 3.67159 3.0629C3.61653 3.20228 3.53419 3.32926 3.4294 3.43638C3.32461 3.54351 3.19947 3.62862 3.06134 3.68673C2.92321 3.74484 2.77486 3.77477 2.625 3.77477C2.47514 3.77477 2.32679 3.74484 2.18866 3.68673C2.05053 3.62862 1.92539 3.54351 1.8206 3.43638C1.71581 3.32926 1.63347 3.20228 1.57841 3.0629C1.52336 2.92352 1.4967 2.77455 1.5 2.62473C1.50648 2.33065 1.62785 2.0508 1.83812 1.8451C2.04839 1.63941 2.33085 1.52423 2.625 1.52423C2.91915 1.52423 3.20161 1.63941 3.41188 1.8451C3.62215 2.0508 3.74352 2.33065 3.75 2.62473Z" fill="#808080"/>
</svg>
