<svg width="13" height="13" viewBox="0 0 13 13" fill="none" xmlns="http://www.w3.org/2000/svg">
<path fill-rule="evenodd" clip-rule="evenodd" d="M3.82023 0.039C4.51336 0.0070909 4.73436 0 6.5 0C8.26564 0 8.48664 0.00768181 9.17918 0.039C9.87173 0.0703182 10.3445 0.180818 10.7581 0.340955C11.1912 0.504636 11.5842 0.7605 11.9092 1.09141C12.2401 1.41582 12.4954 1.80818 12.6585 2.24191C12.8192 2.65555 12.9291 3.12827 12.961 3.81964C12.9929 4.51395 13 4.73495 13 6.5C13 8.26564 12.9923 8.48664 12.961 9.17977C12.9297 9.87114 12.8192 10.3439 12.6585 10.7575C12.4954 11.1913 12.2397 11.5843 11.9092 11.9092C11.5842 12.2401 11.1912 12.4954 10.7581 12.6585C10.3445 12.8192 9.87173 12.9291 9.18036 12.961C8.48664 12.9929 8.26564 13 6.5 13C4.73436 13 4.51336 12.9923 3.82023 12.961C3.12886 12.9297 2.65614 12.8192 2.2425 12.6585C1.80873 12.4953 1.41571 12.2396 1.09082 11.9092C0.760134 11.5846 0.504231 11.1917 0.340955 10.7581C0.180818 10.3445 0.0709091 9.87173 0.039 9.18036C0.0070909 8.48604 0 8.26505 0 6.5C0 4.73436 0.00768181 4.51336 0.039 3.82082C0.0703182 3.12827 0.180818 2.65555 0.340955 2.24191C0.504473 1.80823 0.76057 1.41541 1.09141 1.09082C1.41584 0.760205 1.80846 0.504307 2.24191 0.340955C2.65555 0.180818 3.12827 0.0709091 3.81964 0.039H3.82023ZM9.12659 1.209C8.44114 1.17768 8.2355 1.17118 6.5 1.17118C4.7645 1.17118 4.55886 1.17768 3.87341 1.209C3.23936 1.23795 2.89545 1.34373 2.66618 1.43295C2.36305 1.55114 2.14618 1.69118 1.91868 1.91868C1.70303 2.12848 1.53706 2.38389 1.43295 2.66618C1.34373 2.89545 1.23795 3.23936 1.209 3.87341C1.17768 4.55886 1.17118 4.7645 1.17118 6.5C1.17118 8.2355 1.17768 8.44114 1.209 9.12659C1.23795 9.76064 1.34373 10.1045 1.43295 10.3338C1.53695 10.6157 1.703 10.8715 1.91868 11.0813C2.12845 11.297 2.38432 11.463 2.66618 11.567C2.89545 11.6563 3.23936 11.762 3.87341 11.791C4.55886 11.8223 4.76391 11.8288 6.5 11.8288C8.23609 11.8288 8.44114 11.8223 9.12659 11.791C9.76064 11.762 10.1045 11.6563 10.3338 11.567C10.637 11.4489 10.8538 11.3088 11.0813 11.0813C11.297 10.8715 11.463 10.6157 11.567 10.3338C11.6563 10.1045 11.762 9.76064 11.791 9.12659C11.8223 8.44114 11.8288 8.2355 11.8288 6.5C11.8288 4.7645 11.8223 4.55886 11.791 3.87341C11.762 3.23936 11.6563 2.89545 11.567 2.66618C11.4489 2.36305 11.3088 2.14618 11.0813 1.91868C10.8715 1.70304 10.6161 1.53708 10.3338 1.43295C10.1045 1.34373 9.76064 1.23795 9.12659 1.209ZM5.66977 8.50377C6.13343 8.69678 6.64972 8.72283 7.13046 8.57747C7.61119 8.43211 8.02655 8.12436 8.30559 7.70678C8.58463 7.2892 8.71003 6.7877 8.66039 6.28793C8.61075 5.78815 8.38914 5.32112 8.03341 4.96659C7.80664 4.73996 7.53244 4.56643 7.23056 4.4585C6.92868 4.35056 6.60662 4.31089 6.28757 4.34236C5.96851 4.37383 5.66041 4.47565 5.38543 4.64049C5.11045 4.80532 4.87544 5.02908 4.69732 5.29564C4.51919 5.5622 4.40238 5.86494 4.3553 6.18207C4.30823 6.49919 4.33204 6.82281 4.42505 7.12962C4.51805 7.43644 4.67792 7.71881 4.89315 7.95643C5.10839 8.19404 5.37362 8.38097 5.66977 8.50377ZM4.13755 4.13755C4.44779 3.8273 4.8161 3.58121 5.22145 3.4133C5.6268 3.2454 6.06125 3.15898 6.5 3.15898C6.93875 3.15898 7.3732 3.2454 7.77855 3.4133C8.1839 3.58121 8.55221 3.8273 8.86245 4.13755C9.1727 4.44779 9.41879 4.8161 9.58669 5.22145C9.7546 5.6268 9.84101 6.06125 9.84101 6.5C9.84101 6.93875 9.7546 7.3732 9.58669 7.77855C9.41879 8.1839 9.1727 8.55221 8.86245 8.86245C8.23589 9.48902 7.38609 9.84101 6.5 9.84101C5.61391 9.84101 4.76411 9.48902 4.13755 8.86245C3.51098 8.23589 3.15898 7.38609 3.15898 6.5C3.15898 5.61391 3.51098 4.76411 4.13755 4.13755ZM10.582 3.65655C10.6589 3.58402 10.7204 3.49681 10.763 3.40008C10.8056 3.30334 10.8283 3.19904 10.8298 3.09337C10.8314 2.98769 10.8117 2.88278 10.772 2.78484C10.7322 2.68691 10.6733 2.59794 10.5985 2.5232C10.5238 2.44847 10.4348 2.38949 10.3369 2.34976C10.2389 2.31003 10.134 2.29035 10.0284 2.29189C9.92268 2.29343 9.81839 2.31616 9.72165 2.35873C9.62492 2.4013 9.5377 2.46285 9.46518 2.53973C9.32414 2.68924 9.24692 2.88784 9.24991 3.09337C9.25291 3.29889 9.33589 3.49516 9.48123 3.6405C9.62657 3.78584 9.82283 3.86882 10.0284 3.87181C10.2339 3.87481 10.4325 3.79759 10.582 3.65655Z" fill="#808080"/>
</svg>
