<svg width="95" height="93" viewBox="0 0 95 93" fill="none" xmlns="http://www.w3.org/2000/svg">
<path d="M61.9585 16.3073L66.124 23.0046V70.7549H55.3071L55.6871 26.8137L61.9585 16.3073Z" fill="#D0CFCE"/>
<path d="M33.2236 16.6302L28.7045 22.8367V70.5857L39.6665 70.113L39.0991 27.1508L33.2236 16.6302Z" fill="#D0CFCE"/>
<path d="M37.3601 74.1907C37.3601 74.1907 39.0226 32.9892 38.6927 22.6571C38.376 12.8043 47.4538 7.84816 47.4538 7.84816C47.4538 7.84816 56.5316 12.8043 56.2149 22.6571C55.8851 32.9892 57.5476 74.1907 57.5476 74.1907H37.3601Z" fill="#C9872B"/>
<path d="M52.1313 77.3321L73.3717 75.7137C73.6171 71.6139 69.0597 66.7262 69.0597 66.7262C58.1743 59.0576 56.4155 54.5587 56.4155 54.5587L51.907 42.6986" fill="white"/>
<path d="M42.7896 77.2946L21.6283 75.7136C21.3842 71.6139 25.9403 66.7262 25.9403 66.7262C36.8257 59.0576 38.5845 54.5587 38.5845 54.5587L43.0931 42.6986" fill="white"/>
<path d="M52.8174 84.9632C52.8042 85.0498 52.8042 85.0976 52.8042 85.0976H42.1035C42.1035 85.0976 42.1035 85.0498 42.0903 84.9516C42.0243 84.0797 41.734 79.5525 42.7896 77.2946C42.7632 68.6082 42.7104 39.8363 43.4625 33.3689C44.3334 25.7248 47.4472 24.5959 47.4472 24.5959C47.4472 24.5959 50.5743 25.7248 51.4584 33.3689C52.1972 39.8479 52.1577 68.6818 52.1313 77.3321C53.1604 79.6015 52.8702 84.1172 52.8174 84.9632Z" fill="white"/>
<path d="M59.9424 22.2942L62.9375 16.9725L66.1174 23.0046V64.5575" stroke="black" stroke-width="0.48725" stroke-miterlimit="10" stroke-linecap="round" stroke-linejoin="round"/>
<path d="M28.6979 64.6996V22.8366L31.891 16.8046L34.8861 22.1262" stroke="black" stroke-width="0.48725" stroke-miterlimit="10" stroke-linecap="round" stroke-linejoin="round"/>
<path d="M56.8548 55.3608C56.4458 43.0641 56.0236 28.2875 56.2083 22.6558C56.525 12.8004 47.4472 7.85332 47.4472 7.85332C47.4472 7.85332 38.3694 12.8004 38.6861 22.6558C38.8708 28.3133 38.4486 43.1933 38.0395 55.5287C38.4486 54.8958 38.5805 54.56 38.5805 54.56L43.0138 42.9221V42.9092C43.1062 38.6208 43.2513 35.1462 43.4625 33.3637C44.3333 25.73 47.4472 24.5933 47.4472 24.5933C47.4472 24.5933 50.5743 25.73 51.4583 33.3637C51.6562 35.1204 51.8013 38.5175 51.9069 42.7025C52.1444 52.4417 52.1576 66.4821 52.1312 74.1933" stroke="black" stroke-width="0.48725" stroke-miterlimit="10" stroke-linecap="round" stroke-linejoin="round"/>
<path d="M53.006 77.2584L73.3716 75.7136C73.6157 71.6138 69.0597 66.7262 69.0597 66.7262C58.1743 59.0576 56.4154 54.5587 56.4154 54.5587L51.9069 42.6986" stroke="black" stroke-width="0.48725" stroke-miterlimit="10" stroke-linecap="round" stroke-linejoin="round"/>
<path d="M42.7895 74.1933C42.7632 66.5466 42.7763 52.6483 43.0138 42.9221L38.5805 54.56C38.5805 54.56 38.4486 54.8958 38.0395 55.5287V55.5416" stroke="black" stroke-width="0.48725" stroke-miterlimit="10" stroke-linecap="round" stroke-linejoin="round"/>
<path d="M43.0939 42.7025L43.0139 42.9092V42.9221" stroke="black" stroke-width="0.48725" stroke-miterlimit="10" stroke-linecap="round" stroke-linejoin="round"/>
<path d="M38.0396 55.5417C37.0764 57.04 34.5958 60.2046 28.6979 64.6996C27.8535 65.3454 26.9298 66.03 25.9403 66.7275C25.9403 66.7275 21.3882 71.61 21.6257 75.7175L41.9979 77.2546" stroke="black" stroke-width="0.48725" stroke-miterlimit="10" stroke-linecap="round" stroke-linejoin="round"/>
<path d="M52.8173 84.9658C52.8041 85.0433 52.8041 85.095 52.8041 85.095H42.1034C42.1034 85.095 42.1034 85.0433 42.0902 84.9529C42.0243 84.0746 41.734 79.5537 42.7895 77.2933V74.1933C42.7632 66.5466 42.7763 52.6483 43.0138 42.9221V42.9091C43.1062 38.6208 43.2513 35.1462 43.4625 33.3637C44.3333 25.73 47.4472 24.5933 47.4472 24.5933C47.4472 24.5933 50.5743 25.73 51.4583 33.3637C51.6562 35.1204 51.8013 38.5175 51.9069 42.7025C52.1444 52.4416 52.1576 66.4821 52.1312 74.1933V77.3321C53.1604 79.6054 52.8701 84.1133 52.8173 84.9658V84.9658Z" stroke="black" stroke-width="0.48725" stroke-miterlimit="10" stroke-linecap="round" stroke-linejoin="round"/>
</svg>
