<svg width="12" height="12" viewBox="0 0 12 12" fill="none" xmlns="http://www.w3.org/2000/svg">
<path d="M10.7143 0H1.28571C0.575893 0 0 0.575893 0 1.28571V10.7143C0 11.4241 0.575893 12 1.28571 12H10.7143C11.4241 12 12 11.4241 12 10.7143V1.28571C12 0.575893 11.4241 0 10.7143 0ZM9.40446 4.25357C9.40982 4.32857 9.40982 4.40625 9.40982 4.48125C9.40982 6.80357 7.64196 9.47946 4.41161 9.47946C3.41518 9.47946 2.49107 9.19018 1.71429 8.69196C1.85625 8.70804 1.99286 8.71339 2.1375 8.71339C2.95982 8.71339 3.71518 8.43482 4.31786 7.96339C3.54643 7.94732 2.89821 7.44107 2.67589 6.74464C2.94643 6.78482 3.19018 6.78482 3.46875 6.7125C2.66518 6.54911 2.0625 5.84196 2.0625 4.9875V4.96607C2.29554 5.09732 2.56875 5.17768 2.85536 5.18839C2.6144 5.02812 2.41687 4.81068 2.28039 4.55549C2.14392 4.3003 2.07274 4.01529 2.07321 3.72589C2.07321 3.39911 2.15893 3.09911 2.31161 2.83929C3.17679 3.90536 4.47589 4.60179 5.93304 4.67679C5.68393 3.48482 6.57589 2.51786 7.64732 2.51786C8.15357 2.51786 8.60893 2.72946 8.93036 3.07232C9.32679 2.99732 9.70714 2.85 10.0446 2.64911C9.91339 3.05625 9.6375 3.39911 9.27321 3.61607C9.62679 3.57857 9.96964 3.47946 10.2857 3.34286C10.0473 3.69375 9.74732 4.00446 9.40446 4.25357Z" fill="#808080"/>
</svg>
